# xmcd
#
# Track frame offsets:
#	150
#	12127
#	22514
#	38566
#	50515
#	63730
#	73539
#	87328
#	99525
#	110990
#	127178
#	137517
#	150958
#	159096
#	175331
#	186285
#	201093
#	214239
#	227627
#	239949
#
# Disc length: 3372 seconds
#
# Revision: 0
# Processed by: cddbd v1.5.2PL0 Copyright (c) Steve Scherf et al.
# Submitted via: EasyCDDAExtractor 16.0.1.1
#
DISCID=120d2a14
DTITLE=Dalida - 2011 Le Coffret... CD 1
DYEAR=2011
DGENRE=Chanson
TTITLE0=Come Prima 
TTITLE1=Itsi Bitsi Petit Bikini 
TTITLE2=Bambino 
TTITLE3=Les Enfants Du Piree 
TTITLE4=Gondolier 
TTITLE5=Ciao, Ciao Mon Amour 
TTITLE6=Love In Portofino 
TTITLE7=Garde-Moi La Derniere Danse 
TTITLE8=Eh Bien! 
TTITLE9=Les Gitans 
TTITLE10=Amstramgram 
TTITLE11=Des Millions De Larmes 
TTITLE12=Tout L'amour 
TTITLE13=La Fille Aux Pieds Nus 
TTITLE14=Flamenco Bleu 
TTITLE15=Tu Peux Tout Faire De Moi 
TTITLE16=Mon Coeur Va 
TTITLE17=Por Favor 
TTITLE18=Quand On A Que L'amour 
TTITLE19=Sole Mio 
EXTD=
EXTT0=
EXTT1=
EXTT2=
EXTT3=
EXTT4=
EXTT5=
EXTT6=
EXTT7=
EXTT8=
EXTT9=
EXTT10=
EXTT11=
EXTT12=
EXTT13=
EXTT14=
EXTT15=
EXTT16=
EXTT17=
EXTT18=
EXTT19=
PLAYORDER=
